# xmcd
#
# Track frame offsets:
#	150
#	12224
#	27933
#	42350
#	59851
#	77321
#	95851
#	107979
#	119942
#	136999
#	151796
#	163177
#
# Disc length: 2369 seconds
#
# Revision: 1
# Processed by: cddbd v1.5.1PL0 Copyright (c) Steve Scherf et al.
# Submitted via: audiograbber 1.80
#
DISCID=a4093f0c
DTITLE=Die Flippers - Weine nicht, kleine Eva - 2002
DYEAR=1900
DGENRE=
TTITLE0=Weine nicht, kleine Eva
TTITLE1=St. Tropez
TTITLE2=Zwei Schritte nach vorn
TTITLE3=Das schwarze Pony
TTITLE4=Jackie
TTITLE5=Donna Mexicana
TTITLE6=Der Wind hinter mir
TTITLE7=Rote Rosen in blauer Nacht
TTITLE8=Die Nacht, als Charly Joker kam
TTITLE9=Liebst du mich noch so wie früher
TTITLE10=Heut' ruft mein Herz nur nach dir
TTITLE11=Arrivederci, Ciao, Amor
EXTD=
EXTT0=
EXTT1=
EXTT2=
EXTT3=
EXTT4=
EXTT5=
EXTT6=
EXTT7=
EXTT8=
EXTT9=
EXTT10=
EXTT11=
PLAYORDER=
